<svg width="39" height="39" viewBox="0 0 39 39" fill="none" xmlns="http://www.w3.org/2000/svg">
<path fill-rule="evenodd" clip-rule="evenodd" d="M12.1482 4.83298C6.7851 7.52281 3.104 13.0715 3.104 19.48C3.104 21.1315 3.34846 22.7259 3.80318 24.229L5.984 22.97C6.39289 22.7339 6.87273 22.6519 7.33679 22.7388L13.6261 23.9159L13.6018 18.4439C13.6002 18.0903 13.6935 17.7428 13.8718 17.4375L14.8251 17.9943L14.9013 18.0388M14.8251 17.9943L13.8718 17.4375L17.1093 11.8947L12.1482 4.83298M14.2347 3.96205C15.8814 3.40565 17.6455 3.104 19.48 3.104C23.3914 3.104 26.9826 4.47531 29.7989 6.7634C28.0731 7.77072 26.8664 8.86594 26.0894 10.0192C25.0962 11.4932 24.8499 12.9977 25.0524 14.3668C25.2508 15.7082 25.8705 16.8702 26.5373 17.743C27.1904 18.5978 27.9678 19.2771 28.6007 19.5935C30.3934 20.4897 32.487 20.9482 34.0835 21.187C34.8911 21.3078 35.5917 21.3752 36.0921 21.4125C36.3426 21.4312 36.5439 21.4424 36.6842 21.4489C36.7545 21.4522 36.8095 21.4544 36.848 21.4557L36.8932 21.4572L36.9061 21.4575L36.9114 21.4576C36.9116 21.4577 36.9124 21.4577 36.9384 20.354L36.9114 21.4576C37.51 21.4718 38.0116 21.0063 38.0411 20.4083C38.0562 20.101 38.064 19.7915 38.064 19.48C38.064 9.21634 29.7437 0.895996 19.48 0.895996C9.21634 0.895996 0.895996 9.21634 0.895996 19.48C0.895996 29.7437 9.21634 38.064 19.48 38.064C19.7912 38.064 20.1007 38.0563 20.4083 38.0412C21.0173 38.0112 21.4866 37.4932 21.4567 36.8842C21.4267 36.2752 20.9087 35.8059 20.2997 35.8359C20.0282 35.8492 19.7549 35.856 19.48 35.856C12.8776 35.856 7.18778 31.9487 4.5967 26.3204L7.01424 24.9248L13.4935 26.1374C14.7141 26.3658 15.8409 25.4262 15.8353 24.1844L15.8101 18.4969L19.0904 12.8809C19.4805 12.213 19.4455 11.379 19.0009 10.7462L14.2347 3.96205ZM35.8532 19.1771C35.4487 19.14 34.9558 19.0849 34.4101 19.0033C32.9048 18.7782 31.0765 18.3627 29.588 17.6186C29.3468 17.498 28.8131 17.0848 28.2918 16.4025C27.7841 15.738 27.366 14.9182 27.2366 14.0437C27.1114 13.1971 27.2475 12.2518 27.9205 11.253C28.5354 10.3404 29.6316 9.33618 31.4907 8.34808C34.136 11.2009 35.7774 14.9978 35.8532 19.1771ZM17.1942 12.0155C17.1941 12.0153 17.1943 12.0156 17.1942 12.0155V12.0155ZM17.1834 11.7678C17.1833 11.768 17.1836 11.7676 17.1834 11.7678V11.7678ZM21.4804 21.4804C21.7876 21.1732 22.2464 21.0748 22.6526 21.2288L37.2463 26.7644C37.6718 26.9258 37.9547 27.3317 37.9587 27.7868C37.9627 28.2419 37.6871 28.6528 37.2645 28.8217L31.2328 31.2328L28.8217 37.2645C28.6528 37.6871 28.2419 37.9627 27.7868 37.9587C27.3317 37.9547 26.9258 37.6718 26.7644 37.2463L21.2288 22.6526C21.0748 22.2464 21.1732 21.7876 21.4804 21.4804ZM24.1634 24.1634L27.8236 33.8129L29.3583 29.9736C29.4705 29.6929 29.6929 29.4705 29.9736 29.3583L33.8129 27.8236L24.1634 24.1634Z" fill="#0ACA91"/>
</svg>
