<?xml version="1.0" standalone="no"?><!DOCTYPE svg PUBLIC "-//W3C//DTD SVG 1.1//EN" "http://www.w3.org/Graphics/SVG/1.1/DTD/svg11.dtd"><svg t="1661322866786" class="icon" viewBox="0 0 1044 1024" version="1.1" xmlns="http://www.w3.org/2000/svg" p-id="2098" xmlns:xlink="http://www.w3.org/1999/xlink" width="203.90625" height="200"><defs><style type="text/css">@font-face { font-family: feedback-iconfont; src: url("//at.alicdn.com/t/font_1031158_u69w8yhxdu.woff2?t=1630033759944") format("woff2"), url("//at.alicdn.com/t/font_1031158_u69w8yhxdu.woff?t=1630033759944") format("woff"), url("//at.alicdn.com/t/font_1031158_u69w8yhxdu.ttf?t=1630033759944") format("truetype"); }
</style></defs><path d="M821.30250893 356.71143711a67.84431444 67.84431444 0 0 0-68.0978433 67.61613898v314.07151335l-185.55774984-184.23940019a68.45278356 68.45278356 0 0 0-96.34095457 0l-185.55774983 184.26475286V424.27687003a68.09784332 68.09784332 0 0 0-136.19568734 0v329.43536025a128.46305748 128.46305748 0 0 0 80.11511041 119.15854981 130.03493596 130.03493596 0 0 0 141.41838056-27.88817099l196.51019543-195.21719848a56.48622324 56.48622324 0 0 0 12.67644084-19.1414264 65.91749569 65.91749569 0 0 0 4.28463723-43.09990117 75.65300233 75.65300233 0 0 1-10.14115296 102.40029382l-31.31081025 31.08263479 124.71083062 123.84883264a130.03493596 130.03493596 0 0 0 141.41838129 27.888171 128.46305748 128.46305748 0 0 0 80.11510968-119.15854909V424.27687003A67.84431444 67.84431444 0 0 0 821.30250893 356.71143711z m76.3375309-139.77044333A76.31217751 76.31217751 0 1 1 821.32786231 141.21193272a76.05864864 76.05864864 0 0 1 76.31217753 75.67835572z m-756.27649659 0A76.31217751 76.31217751 0 1 0 217.67572075 141.21193272a76.05864864 76.05864864 0 0 0-76.31217751 75.67835572z" p-id="2099"></path></svg>
